<svg width="118" height="108" viewBox="0 0 118 108" fill="none" xmlns="http://www.w3.org/2000/svg">
<path d="M79.4512 39.18C71.0812 39.18 62.5612 38.84 54.5912 36.62C46.7712 34.45 39.5912 30.24 33.1912 25.37C29.0012 22.2 25.1912 19.67 19.7512 20.05C14.4293 20.338 9.34 22.3253 5.23121 25.72C-1.68879 31.78 -0.648793 43.01 2.12121 50.87C6.28121 62.74 18.9412 71.01 29.7012 76.36C42.1312 82.57 55.7912 86.18 69.4812 88.25C81.4812 90.08 96.9012 91.4 107.301 83.57C116.851 76.36 119.471 59.92 117.131 48.82C116.563 45.5409 114.817 42.5821 112.221 40.5C105.511 35.59 95.5012 38.87 87.9612 39.03C85.1612 39.09 82.3112 39.16 79.4512 39.18Z" fill="#F2F2F2"/>
<path d="M59.3714 107.71C79.6458 107.71 96.0814 106.685 96.0814 105.42C96.0814 104.155 79.6458 103.13 59.3714 103.13C39.097 103.13 22.6614 104.155 22.6614 105.42C22.6614 106.685 39.097 107.71 59.3714 107.71Z" fill="#F2F2F2"/>
<path d="M7.57129 17.13L20.5713 16.03C22.1924 15.8881 23.813 16.3073 25.1619 17.2175C26.5109 18.1277 27.5062 19.4736 27.9813 21.03L40.4413 62.73L38.0013 67.1C37.3746 68.226 37.0652 69.5009 37.1061 70.7889C37.147 72.0769 37.5368 73.3296 38.2337 74.4135C38.9306 75.4974 39.9087 76.3719 41.0635 76.9436C42.2184 77.5153 43.5068 77.7629 44.7913 77.66L94.6913 73.42" stroke="#BABABA" stroke-linecap="round" stroke-linejoin="round"/>
<path d="M29.8413 27.36L87.8413 22.44C88.4127 22.391 88.9877 22.4714 89.5238 22.675C90.0599 22.8786 90.5432 23.2003 90.938 23.6162C91.3328 24.0321 91.6289 24.5316 91.8043 25.0776C91.9797 25.6235 92.03 26.202 91.9513 26.77L88.0213 55.14C87.902 55.9912 87.4998 56.7775 86.8795 57.3724C86.2591 57.9673 85.4567 58.3363 84.6013 58.42L40.4413 62.73L29.8413 27.36Z" fill="white" stroke="#BABABA" stroke-linecap="round" stroke-linejoin="round"/>
<path d="M50.3414 87.22C52.9426 87.22 55.0514 85.1113 55.0514 82.51C55.0514 79.9088 52.9426 77.8 50.3414 77.8C47.7401 77.8 45.6313 79.9088 45.6313 82.51C45.6313 85.1113 47.7401 87.22 50.3414 87.22Z" fill="white" stroke="#BABABA" stroke-linecap="round" stroke-linejoin="round"/>
<path d="M83.1412 84.44C85.7424 84.44 87.8512 82.3313 87.8512 79.73C87.8512 77.1288 85.7424 75.02 83.1412 75.02C80.5399 75.02 78.4312 77.1288 78.4312 79.73C78.4312 82.3313 80.5399 84.44 83.1412 84.44Z" fill="white" stroke="#BABABA" stroke-linecap="round" stroke-linejoin="round"/>
<path d="M17.8658 14.904L5.60986 15.9439C4.54776 16.0341 3.75982 16.9681 3.84994 18.0302C3.94006 19.0923 4.87412 19.8802 5.93621 19.7901L18.1922 18.7502C19.2543 18.6601 20.0422 17.726 19.9521 16.6639C19.862 15.6018 18.9279 14.8139 17.8658 14.904Z" fill="#D2D2D2"/>
<path d="M54.2612 49.27C54.5004 47.4449 55.3563 45.7565 56.6869 44.4847C58.0175 43.2129 59.743 42.4342 61.577 42.2778C63.411 42.1213 65.2433 42.5966 66.7701 43.6246C68.297 44.6527 69.4264 46.1718 69.9712 47.93" stroke="#BABABA" stroke-linecap="round" stroke-linejoin="round"/>
<path d="M70.1012 38.48C70.7198 38.48 71.2212 37.9786 71.2212 37.36C71.2212 36.7415 70.7198 36.24 70.1012 36.24C69.4826 36.24 68.9812 36.7415 68.9812 37.36C68.9812 37.9786 69.4826 38.48 70.1012 38.48Z" fill="#BABABA"/>
<path d="M52.3512 39.98C52.9698 39.98 53.4712 39.4786 53.4712 38.86C53.4712 38.2415 52.9698 37.74 52.3512 37.74C51.7326 37.74 51.2312 38.2415 51.2312 38.86C51.2312 39.4786 51.7326 39.98 52.3512 39.98Z" fill="#BABABA"/>
<path d="M20.8013 81.12V85.43" stroke="#BABABA" stroke-linecap="round" stroke-linejoin="round"/>
<path d="M18.6514 83.27H22.9514" stroke="#BABABA" stroke-linecap="round" stroke-linejoin="round"/>
<path d="M89.5112 1V5.3" stroke="#BABABA" stroke-linecap="round" stroke-linejoin="round"/>
<path d="M87.3613 3.15002H91.6613" stroke="#BABABA" stroke-linecap="round" stroke-linejoin="round"/>
<path d="M38.6013 13.85V18.15" stroke="#BABABA" stroke-linecap="round" stroke-linejoin="round"/>
<path d="M36.4412 16H40.7512" stroke="#BABABA" stroke-linecap="round" stroke-linejoin="round"/>
<path d="M100.241 29.66C100.805 29.66 101.261 29.2033 101.261 28.64C101.261 28.0767 100.805 27.62 100.241 27.62C99.6779 27.62 99.2212 28.0767 99.2212 28.64C99.2212 29.2033 99.6779 29.66 100.241 29.66Z" fill="white" stroke="#BABABA" stroke-linecap="round" stroke-linejoin="round"/>
<path d="M62.1214 20.49C62.6626 20.49 63.1014 20.0512 63.1014 19.51C63.1014 18.9688 62.6626 18.53 62.1214 18.53C61.5801 18.53 61.1414 18.9688 61.1414 19.51C61.1414 20.0512 61.5801 20.49 62.1214 20.49Z" fill="#CFCFCF"/>
<path d="M68.7012 91.61C69.2424 91.61 69.6812 91.1713 69.6812 90.63C69.6812 90.0888 69.2424 89.65 68.7012 89.65C68.16 89.65 67.7212 90.0888 67.7212 90.63C67.7212 91.1713 68.16 91.61 68.7012 91.61Z" fill="#CFCFCF"/>
</svg>
